<svg width="16" height="16" viewBox="0 0 16 16" fill="none" xmlns="http://www.w3.org/2000/svg">
<path fill-rule="evenodd" clip-rule="evenodd" d="M10.0387 11.4605C8.99646 12.2152 7.71522 12.6601 6.33006 12.6601C2.83406 12.6601 0 9.82605 0 6.33006C0 2.83406 2.83406 0 6.33006 0C9.82605 0 12.6601 2.83406 12.6601 6.33006C12.6601 7.67441 12.241 8.92088 11.5264 9.94596L15.6341 14.0537C16.0487 14.4682 16.0487 15.1403 15.6341 15.5548C15.2196 15.9694 14.5475 15.9694 14.133 15.5548L10.0387 11.4605ZM11.2278 6.32998C11.2278 9.03491 9.03498 11.2277 6.33005 11.2277C3.62512 11.2277 1.43234 9.03491 1.43234 6.32998C1.43234 3.62505 3.62512 1.43227 6.33005 1.43227C9.03498 1.43227 11.2278 3.62505 11.2278 6.32998Z" fill="#251A51"/>
</svg>
